<?xml version="1.0" encoding="UTF-8"?><svg xmlns="http://www.w3.org/2000/svg" viewBox="0 0 48 48"><defs><style>.d{fill:#fff;}.e{opacity:.5;}.f{opacity:.49;}.g{fill:none;}</style></defs><g id="a"/><g id="b"><g id="c"><g><g class="e"><rect class="g" width="48" height="48"/></g><g class="f"><rect class="g" width="48" height="48"/></g><path class="d" d="M43,13v22H5V13H43m.96-3H4.04c-1.13,0-2.04,.91-2.04,2.04v23.92c0,1.13,.91,2.04,2.04,2.04H43.96c1.13,0,2.04-.91,2.04-2.04V12.04c0-1.13-.91-2.04-2.04-2.04h0Z"/><polygon class="d" points="12 16 9 16 9 19 12 19 12 16 12 16"/><polygon class="d" points="17 16 14 16 14 19 17 19 17 16 17 16"/><polygon class="d" points="12 22 9 22 9 25 12 25 12 22 12 22"/><polygon class="d" points="17 22 14 22 14 25 17 25 17 22 17 22"/><polygon class="d" points="22 16 19 16 19 19 22 19 22 16 22 16"/><polygon class="d" points="27 16 24 16 24 19 27 19 27 16 27 16"/><polygon class="d" points="22 22 19 22 19 25 22 25 22 22 22 22"/><polygon class="d" points="27 22 24 22 24 25 27 25 27 22 27 22"/><polygon class="d" points="32 16 29 16 29 19 32 19 32 16 32 16"/><polygon class="d" points="39 16 34 16 34 19 39 19 39 16 39 16"/><polygon class="d" points="39 22 34 22 33 22 29 22 29 25 33 25 34 25 39 25 39 22 39 22"/><polygon class="d" points="39 28 9 28 9 31 39 31 39 28 39 28"/></g></g></g></svg>